<svg width="84" height="18" viewBox="0 0 84 18" fill="none" xmlns="http://www.w3.org/2000/svg">
<path d="M9 0.440308L11.751 6.11631L18 6.97956L13.452 11.3506L14.562 17.5598L9 14.5846L3.43725 17.5598L4.548 11.3506L0 6.97956L6.249 6.11631L9 0.440308Z" fill="#ECAD03"/>
<path d="M31 0.440308L33.751 6.11631L40 6.97956L35.452 11.3506L36.562 17.5598L31 14.5846L25.4373 17.5598L26.548 11.3506L22 6.97956L28.249 6.11631L31 0.440308Z" fill="#ECAD03"/>
<path d="M53 0.440308L55.751 6.11631L62 6.97956L57.452 11.3506L58.562 17.5598L53 14.5846L47.4373 17.5598L48.548 11.3506L44 6.97956L50.249 6.11631L53 0.440308Z" fill="#ECAD03"/>
<path d="M75 0.440308L77.751 6.11631L84 6.97956L79.452 11.3506L80.562 17.5598L75 14.5846L69.4373 17.5598L70.548 11.3506L66 6.97956L72.249 6.11631L75 0.440308Z" fill="#ECAD03"/>
</svg>
